<?xml version="1.0" encoding="UTF-8"?>
<svg width="496px" height="496px" viewBox="0 0 496 496" version="1.1" xmlns="http://www.w3.org/2000/svg" xmlns:xlink="http://www.w3.org/1999/xlink">
    <title>add</title>
    <g id="Page-1" stroke="none" stroke-width="1" fill="none" fill-rule="evenodd">
        <g id="add" fill="#6cd9bc" fill-rule="nonzero">
            <path d="M248,0 C384.967,0 496,111.033 496,248 C496,384.967 384.967,496 248,496 C111.097,495.846 0.154,384.903 0,248 C0,111.033 111.033,0 248,0 Z M248,16 C119.93,16.146 16.146,119.93 16,248 C16,376.13 119.87,480 248,480 C376.13,480 480,376.13 480,248 C480,119.87 376.13,16 248,16 Z M248,88 C252.418,88 256,91.582 256,96 L256,96 L256,240 L400,240 C404.418,240 408,243.582 408,248 C408,252.418 404.418,256 400,256 L400,256 L256,256 L256,400 C256,404.418 252.418,408 248,408 C243.582,408 240,404.418 240,400 L240,400 L240,256 L96,256 C91.582,256 88,252.418 88,248 C88,243.582 91.582,240 96,240 L96,240 L240,240 L240,96 C240,91.582 243.582,88 248,88 Z" id="Combined-Shape"></path>
        </g>
    </g>
</svg>